<svg xmlns="http://www.w3.org/2000/svg" width="600" height="400" viewBox="0 0 600 400">
  <rect width="600" height="400" fill="#111111"/>
  <!-- Axes -->
  <line x1="80" y1="320" x2="520" y2="320" stroke="#7A7A72" stroke-width="1"/>
  <line x1="80" y1="320" x2="80" y2="80" stroke="#7A7A72" stroke-width="1"/>
  <!-- Grid lines -->
  <line x1="80" y1="260" x2="520" y2="260" stroke="#7A7A72" stroke-width="0.3" stroke-dasharray="4,6"/>
  <line x1="80" y1="200" x2="520" y2="200" stroke="#7A7A72" stroke-width="0.3" stroke-dasharray="4,6"/>
  <line x1="80" y1="140" x2="520" y2="140" stroke="#7A7A72" stroke-width="0.3" stroke-dasharray="4,6"/>
  <!-- Histogram curve - smooth tonal distribution -->
  <path d="M80,320 Q100,310 120,290 Q140,260 160,220 Q180,170 200,150 Q220,140 240,145 Q260,150 280,130 Q300,100 320,110 Q340,125 360,140 Q380,160 400,155 Q420,145 440,180 Q460,230 480,270 Q500,300 520,320" fill="none" stroke="#F0EDE8" stroke-width="1.5" stroke-linecap="round"/>
  <!-- Subtle fill area -->
  <path d="M80,320 Q100,310 120,290 Q140,260 160,220 Q180,170 200,150 Q220,140 240,145 Q260,150 280,130 Q300,100 320,110 Q340,125 360,140 Q380,160 400,155 Q420,145 440,180 Q460,230 480,270 Q500,300 520,320 Z" fill="#F0EDE8" fill-opacity="0.04" stroke="none"/>
  <!-- Axis ticks -->
  <line x1="190" y1="320" x2="190" y2="325" stroke="#7A7A72" stroke-width="0.8"/>
  <line x1="300" y1="320" x2="300" y2="325" stroke="#7A7A72" stroke-width="0.8"/>
  <line x1="410" y1="320" x2="410" y2="325" stroke="#7A7A72" stroke-width="0.8"/>
  <!-- Peak indicator -->
  <circle cx="300" cy="100" r="3" fill="none" stroke="#7A7A72" stroke-width="0.8"/>
  <line x1="300" y1="103" x2="300" y2="110" stroke="#7A7A72" stroke-width="0.5" stroke-dasharray="2,2"/>
</svg>