<svg xmlns="http://www.w3.org/2000/svg" width="600" height="400" viewBox="0 0 600 400">
  <rect width="600" height="400" fill="#111111"/>
  <!-- Slider 1 -->
  <line x1="150" y1="110" x2="450" y2="110" stroke="#7A7A72" stroke-width="0.8"/>
  <line x1="150" y1="110" x2="320" y2="110" stroke="#F0EDE8" stroke-width="1.2"/>
  <circle cx="320" cy="110" r="7" fill="none" stroke="#F0EDE8" stroke-width="1.2"/>
  <circle cx="320" cy="110" r="2.5" fill="#F0EDE8" stroke="none"/>
  <!-- Slider label line -->
  <line x1="110" y1="105" x2="135" y2="105" stroke="#7A7A72" stroke-width="0.5"/>
  <line x1="110" y1="110" x2="135" y2="110" stroke="#7A7A72" stroke-width="0.5"/>
  <!-- Slider 2 -->
  <line x1="150" y1="175" x2="450" y2="175" stroke="#7A7A72" stroke-width="0.8"/>
  <line x1="150" y1="175" x2="260" y2="175" stroke="#F0EDE8" stroke-width="1.2"/>
  <circle cx="260" cy="175" r="7" fill="none" stroke="#F0EDE8" stroke-width="1.2"/>
  <circle cx="260" cy="175" r="2.5" fill="#F0EDE8" stroke="none"/>
  <line x1="110" y1="170" x2="135" y2="170" stroke="#7A7A72" stroke-width="0.5"/>
  <line x1="110" y1="175" x2="135" y2="175" stroke="#7A7A72" stroke-width="0.5"/>
  <!-- Slider 3 -->
  <line x1="150" y1="240" x2="450" y2="240" stroke="#7A7A72" stroke-width="0.8"/>
  <line x1="150" y1="240" x2="380" y2="240" stroke="#F0EDE8" stroke-width="1.2"/>
  <circle cx="380" cy="240" r="7" fill="none" stroke="#F0EDE8" stroke-width="1.2"/>
  <circle cx="380" cy="240" r="2.5" fill="#F0EDE8" stroke="none"/>
  <line x1="110" y1="235" x2="135" y2="235" stroke="#7A7A72" stroke-width="0.5"/>
  <line x1="110" y1="240" x2="135" y2="240" stroke="#7A7A72" stroke-width="0.5"/>
  <!-- Slider 4 -->
  <line x1="150" y1="305" x2="450" y2="305" stroke="#7A7A72" stroke-width="0.8"/>
  <line x1="150" y1="305" x2="300" y2="305" stroke="#F0EDE8" stroke-width="1.2"/>
  <circle cx="300" cy="305" r="7" fill="none" stroke="#F0EDE8" stroke-width="1.2"/>
  <circle cx="300" cy="305" r="2.5" fill="#F0EDE8" stroke="none"/>
  <line x1="110" y1="300" x2="135" y2="300" stroke="#7A7A72" stroke-width="0.5"/>
  <line x1="110" y1="305" x2="135" y2="305" stroke="#7A7A72" stroke-width="0.5"/>
  <!-- Center mark on each slider -->
  <line x1="300" y1="104" x2="300" y2="116" stroke="#7A7A72" stroke-width="0.4"/>
  <line x1="300" y1="169" x2="300" y2="181" stroke="#7A7A72" stroke-width="0.4"/>
  <line x1="300" y1="234" x2="300" y2="246" stroke="#7A7A72" stroke-width="0.4"/>
  <line x1="300" y1="299" x2="300" y2="311" stroke="#7A7A72" stroke-width="0.4"/>
</svg>