<svg xmlns="http://www.w3.org/2000/svg" width="600" height="400" viewBox="0 0 600 400">
  <rect width="600" height="400" fill="#111111"/>
  <!-- Face silhouette profile (facing right) -->
  <path d="M280,80 Q290,80 295,90 Q300,100 298,115 Q296,125 300,135 Q310,145 312,155 Q314,165 310,172 Q305,178 308,185 Q312,195 310,205 Q308,215 300,225 Q295,232 290,240 Q285,248 280,260 Q278,270 275,280 L275,320" fill="none" stroke="#F0EDE8" stroke-width="1.2"/>
  <!-- Back of head -->
  <path d="M280,80 Q260,85 250,100 Q240,120 238,150 Q237,180 240,210 Q245,250 250,280 L275,320" fill="none" stroke="#F0EDE8" stroke-width="1.2"/>
  <!-- Light rays from left side -->
  <line x1="80" y1="100" x2="240" y2="160" stroke="#F0EDE8" stroke-width="0.8" stroke-opacity="0.5"/>
  <line x1="80" y1="140" x2="238" y2="180" stroke="#F0EDE8" stroke-width="0.8" stroke-opacity="0.55"/>
  <line x1="80" y1="180" x2="237" y2="200" stroke="#F0EDE8" stroke-width="0.8" stroke-opacity="0.6"/>
  <line x1="80" y1="220" x2="240" y2="220" stroke="#F0EDE8" stroke-width="0.8" stroke-opacity="0.55"/>
  <line x1="80" y1="260" x2="245" y2="245" stroke="#F0EDE8" stroke-width="0.8" stroke-opacity="0.5"/>
  <line x1="80" y1="300" x2="250" y2="270" stroke="#F0EDE8" stroke-width="0.8" stroke-opacity="0.4"/>
  <!-- Light source indicator -->
  <circle cx="60" cy="200" r="15" fill="none" stroke="#F0EDE8" stroke-width="1" stroke-opacity="0.4"/>
  <circle cx="60" cy="200" r="5" fill="none" stroke="#F0EDE8" stroke-width="0.6" stroke-opacity="0.3"/>
  <!-- Shadow side indication (right of face) -->
  <line x1="315" y1="140" x2="380" y2="120" stroke="#7A7A72" stroke-width="0.4" stroke-opacity="0.3" stroke-dasharray="4,6"/>
  <line x1="315" y1="170" x2="380" y2="165" stroke="#7A7A72" stroke-width="0.4" stroke-opacity="0.3" stroke-dasharray="4,6"/>
  <line x1="312" y1="200" x2="380" y2="200" stroke="#7A7A72" stroke-width="0.4" stroke-opacity="0.3" stroke-dasharray="4,6"/>
  <line x1="305" y1="230" x2="380" y2="240" stroke="#7A7A72" stroke-width="0.4" stroke-opacity="0.3" stroke-dasharray="4,6"/>
</svg>